<!-- assets/img/placeholders.svg -->
<svg xmlns="http://www.w3.org/2000/svg" width="840" height="320" viewBox="0 0 840 320" role="img" aria-label="REVO placeholder graphic">
  <defs>
    <linearGradient id="g" x1="0" y1="0" x2="1" y2="1">
      <stop offset="0" stop-color="#7c5cff" stop-opacity=".85"/>
      <stop offset="1" stop-color="#3ee0c6" stop-opacity=".75"/>
    </linearGradient>
  </defs>
  <rect x="0" y="0" width="840" height="320" rx="28" fill="#0b1220"/>
  <rect x="18" y="18" width="804" height="284" rx="22" fill="url(#g)" opacity=".18"/>
  <g fill="none" stroke="#ffffff" stroke-opacity=".22">
    <path d="M70 250 C 170 140, 280 300, 380 190 C 480 80, 580 280, 690 140 C 740 90, 780 130, 800 110" stroke-width="3"/>
    <path d="M70 220 C 170 120, 280 260, 380 160 C 480 60, 580 240, 690 110 C 740 70, 780 105, 800 90" stroke-width="2"/>
  </g>
  <g fill="#ffffff" fill-opacity=".9">
    <circle cx="90" cy="110" r="6"/>
    <circle cx="190" cy="170" r="6"/>
    <circle cx="290" cy="135" r="6"/>
    <circle cx="390" cy="210" r="6"/>
    <circle cx="490" cy="120" r="6"/>
    <circle cx="590" cy="200" r="6"/>
    <circle cx="690" cy="140" r="6"/>
  </g>
  <g fill="#ffffff" fill-opacity=".92">
    <text x="60" y="80" font-family="ui-sans-serif,system-ui,-apple-system,Segoe UI,Roboto,Helvetica,Arial" font-size="26" font-weight="800">REVO</text>
    <text x="60" y="112" font-family="ui-sans-serif,system-ui,-apple-system,Segoe UI,Roboto,Helvetica,Arial" font-size="14" fill-opacity=".75">Real Estate Virtual Ops</text>
  </g>
</svg>
